<svg width="160" height="64" viewBox="0 0 160 64" fill="none" xmlns="http://www.w3.org/2000/svg">
<path d="M57.6753 28.5786V27.6294H55.6856V12.4905H57.6753V11.5413H52.7981V12.4905H54.6908V27.6294H52.7981V28.5786H57.6753Z" fill="white"/>
<path d="M64.0687 28.5786V27.6294H62.2731V23.5891C62.2731 23.1023 62.3702 22.6561 62.5643 22.2505C62.7746 21.8448 63.0577 21.4878 63.4136 21.1795C63.7371 20.8875 64.1254 20.6603 64.5783 20.498C65.0313 20.3358 65.5085 20.2546 66.0099 20.2546C66.6894 20.2871 67.1989 20.498 67.5386 20.8875C67.8945 21.2607 68.0886 21.715 68.121 22.2505V27.6294H66.2283V28.5786H70.9114V27.6294H69.1158V21.9827C69.0835 21.1714 68.8085 20.5143 68.2908 20.0113C67.7732 19.5083 67.0695 19.2567 66.1798 19.2567C65.2739 19.2567 64.4651 19.492 63.7533 19.9626C63.0415 20.4331 62.5239 21.0497 62.2004 21.8123C62.1842 21.5365 62.168 21.2931 62.1518 21.0822C62.1356 20.855 62.1195 20.6035 62.1033 20.3277L62.079 19.4515H59.5312V20.4007H61.2783V27.6294H59.3856V28.5786H64.0687Z" fill="white"/>
<path d="M80.3728 27.7024L79.742 26.9479C79.4184 27.2075 79.0545 27.4103 78.65 27.5564C78.2456 27.7024 77.8169 27.7754 77.364 27.7754C76.8464 27.7754 76.353 27.6781 75.8838 27.4834C75.4309 27.2886 75.0427 27.029 74.7191 26.7045C74.3632 26.3638 74.0882 25.9662 73.8941 25.5119C73.7 25.0413 73.6029 24.5383 73.6029 24.0029C73.6029 23.4674 73.7 22.9725 73.8941 22.5182C74.0882 22.0476 74.3713 21.6339 74.7434 21.2769C75.0669 20.9524 75.4552 20.7009 75.9081 20.5224C76.3611 20.3277 76.8464 20.2303 77.364 20.2303C77.7684 20.2303 78.1486 20.2871 78.5044 20.4007C78.8603 20.5143 79.1839 20.6765 79.475 20.8875V22.6886H80.3971V20.3033C79.9927 19.9788 79.5317 19.7273 79.014 19.5488C78.4964 19.3541 77.9464 19.2567 77.364 19.2567C76.7008 19.2567 76.078 19.3866 75.4956 19.6462C74.9294 19.8896 74.4279 20.2222 73.9912 20.6441C73.5544 21.066 73.2147 21.569 72.9721 22.1531C72.7294 22.7372 72.6081 23.3538 72.6081 24.0029C72.6081 24.6681 72.7294 25.2928 72.9721 25.877C73.2147 26.4449 73.5625 26.9398 74.0154 27.3617C74.436 27.7998 74.9294 28.1405 75.4956 28.3839C76.078 28.6273 76.7008 28.749 77.364 28.749C77.9464 28.749 78.4883 28.6597 78.9897 28.4813C79.4912 28.2865 79.9523 28.0269 80.3728 27.7024Z" fill="white"/>
<path d="M90.2881 27.3617C90.7087 26.9236 91.0403 26.4205 91.2829 25.8526C91.5418 25.2847 91.6712 24.6681 91.6712 24.0029C91.6712 23.3538 91.5418 22.7372 91.2829 22.1531C91.0403 21.569 90.7087 21.0578 90.2881 20.6197C89.8513 20.1979 89.3337 19.8652 88.7351 19.6218C88.1528 19.3622 87.53 19.2324 86.8667 19.2324C86.2035 19.2324 85.5807 19.3622 84.9983 19.6218C84.416 19.8652 83.9145 20.1979 83.4939 20.6197C83.0571 21.0578 82.7174 21.569 82.4748 22.1531C82.2321 22.7372 82.1108 23.3538 82.1108 24.0029C82.1108 24.6681 82.2321 25.2928 82.4748 25.877C82.7174 26.4449 83.0571 26.9398 83.4939 27.3617C83.9145 27.7998 84.4079 28.1405 84.9741 28.3839C85.5564 28.6273 86.1873 28.749 86.8667 28.749C87.53 28.749 88.1528 28.6273 88.7351 28.3839C89.3337 28.1405 89.8513 27.7998 90.2881 27.3617ZM84.1976 26.6558C83.8579 26.3313 83.591 25.9419 83.3969 25.4875C83.2027 25.0332 83.1057 24.5383 83.1057 24.0029C83.1057 23.4836 83.2027 22.9969 83.3969 22.5425C83.591 22.0882 83.8579 21.6825 84.1976 21.3256C84.5373 20.9848 84.9336 20.7171 85.3866 20.5224C85.8395 20.3277 86.3248 20.2303 86.8425 20.2303C87.3601 20.2303 87.8454 20.3277 88.2984 20.5224C88.7675 20.7171 89.1719 20.9848 89.5116 21.3256C89.8675 21.6825 90.1425 22.0963 90.3366 22.5669C90.5307 23.0212 90.6278 23.4999 90.6278 24.0029C90.6278 24.5383 90.5307 25.0332 90.3366 25.4875C90.1425 25.9419 89.8675 26.3313 89.5116 26.6558C89.1719 27.0128 88.7675 27.2886 88.2984 27.4834C87.8454 27.6781 87.3601 27.7754 86.8425 27.7754C86.3248 27.7754 85.8395 27.6781 85.3866 27.4834C84.9336 27.2886 84.5373 27.0128 84.1976 26.6558Z" fill="white"/>
<path d="M98.049 28.5786V27.6294H96.2534V23.5891C96.2534 23.1023 96.3505 22.6561 96.5446 22.2505C96.7549 21.8448 97.038 21.4878 97.3939 21.1795C97.7174 20.8875 98.1057 20.6603 98.5586 20.498C99.0116 20.3358 99.4888 20.2546 99.9902 20.2546C100.67 20.2871 101.179 20.498 101.519 20.8875C101.875 21.2607 102.069 21.715 102.101 22.2505V27.6294H100.209V28.5786H104.892V27.6294H103.096V21.9827C103.064 21.1714 102.789 20.5143 102.271 20.0113C101.753 19.5083 101.05 19.2567 100.16 19.2567C99.2542 19.2567 98.4454 19.492 97.7336 19.9626C97.0218 20.4331 96.5042 21.0497 96.1806 21.8123C96.1645 21.5365 96.1483 21.2931 96.1321 21.0822C96.1159 20.855 96.0998 20.6035 96.0836 20.3277L96.0593 19.4515H93.5115V20.4007H95.2586V27.6294H93.3659V28.5786H98.049Z" fill="white"/>
<path d="M64.9548 52.5802V48.832H64.0085V51.631H55.54V44.4753H63.6688V43.5017H55.54V36.4921H63.6688V39.2911H64.6151V35.5429H52.7981V36.4921H54.5452V51.631H52.7981V52.5802H64.9548Z" fill="white"/>
<path d="M78.0163 52.5802V51.631H76.2207V34.3259H73.503V35.2751H75.2258V43.3557C75.2258 43.7938 75.2258 44.1508 75.2258 44.4266C75.2258 44.7025 75.2339 45.0594 75.2501 45.4976C75.1207 45.2217 74.9508 44.954 74.7406 44.6944C74.5303 44.4347 74.2553 44.1914 73.9155 43.9642C73.5758 43.7533 73.1876 43.5829 72.7508 43.4531C72.3302 43.3233 71.8935 43.2584 71.4405 43.2584C70.7611 43.2584 70.1302 43.3882 69.5479 43.6478C68.9817 43.8912 68.4802 44.2238 68.0434 44.6457C67.6067 45.0676 67.267 45.5706 67.0243 46.1547C66.7817 46.7388 66.6603 47.3554 66.6603 48.0045C66.6603 48.6697 66.7817 49.2863 67.0243 49.8542C67.267 50.4222 67.6067 50.9252 68.0434 51.3633C68.4802 51.8014 68.9817 52.1421 69.5479 52.3855C70.1302 52.6289 70.7611 52.7506 71.4405 52.7506C71.9258 52.7506 72.3788 52.6857 72.7994 52.5559C73.2361 52.4261 73.6244 52.2476 73.9641 52.0204C74.2876 51.8095 74.5626 51.5742 74.7891 51.3146C75.0317 51.0387 75.2097 50.7548 75.3229 50.4627C75.3229 50.6737 75.3229 50.8684 75.3229 51.0469C75.3229 51.2091 75.3229 51.3876 75.3229 51.5823V52.5802H78.0163ZM71.4405 44.2319C71.942 44.2319 72.4192 44.3212 72.8722 44.4996C73.3251 44.6781 73.7214 44.9296 74.0611 45.2542C74.417 45.5949 74.7001 46.0087 74.9104 46.4955C75.1207 46.966 75.2258 47.469 75.2258 48.0045C75.2258 48.5399 75.1207 49.0429 74.9104 49.5135C74.7163 49.9841 74.4413 50.3816 74.0854 50.7061C73.7295 51.0469 73.3251 51.3146 72.8722 51.5093C72.4354 51.6878 71.9582 51.777 71.4405 51.777C70.9067 51.777 70.4133 51.6878 69.9604 51.5093C69.5236 51.3146 69.1354 51.0469 68.7957 50.7061C68.4398 50.3816 68.1567 49.9841 67.9464 49.5135C67.7523 49.0429 67.6552 48.5399 67.6552 48.0045C67.6552 47.4852 67.7523 46.9985 67.9464 46.5441C68.1405 46.0736 68.4074 45.6679 68.7471 45.3272C69.0868 44.9864 69.4832 44.7187 69.9361 44.524C70.389 44.3293 70.8905 44.2319 71.4405 44.2319Z" fill="white"/>
<path d="M88.428 50.2193V51.3146L88.4766 52.5802H91.0729V51.704H89.3501V43.4531H86.5596V44.4023H88.3552V48.4426C88.3552 48.9294 88.2501 49.3837 88.0398 49.8056C87.8457 50.2112 87.5788 50.552 87.239 50.8278C86.8832 51.1361 86.4787 51.3714 86.0258 51.5336C85.589 51.6959 85.1199 51.777 84.6184 51.777C83.939 51.7446 83.4214 51.5418 83.0655 51.1686C82.7258 50.7791 82.5397 50.3167 82.5074 49.7812V43.4531H79.7169V44.4023H81.5125V50.049C81.5449 50.8603 81.8199 51.5174 82.3375 52.0204C82.8552 52.5234 83.5589 52.7749 84.4486 52.7749C85.3383 52.7749 86.139 52.5478 86.8508 52.0934C87.5788 51.6229 88.1045 50.9982 88.428 50.2193Z" fill="white"/>
<path d="M100.538 51.704L99.9074 50.9495C99.5839 51.2091 99.2199 51.4119 98.8155 51.558C98.4111 51.704 97.9824 51.777 97.5294 51.777C97.0118 51.777 96.5184 51.6797 96.0493 51.485C95.5963 51.2902 95.2081 51.0306 94.8846 50.7061C94.5287 50.3654 94.2537 49.9678 94.0596 49.5135C93.8654 49.0429 93.7684 48.5399 93.7684 48.0045C93.7684 47.469 93.8654 46.9741 94.0596 46.5198C94.2537 46.0492 94.5368 45.6355 94.9088 45.2785C95.2324 44.954 95.6206 44.7025 96.0735 44.524C96.5265 44.3293 97.0118 44.2319 97.5294 44.2319C97.9338 44.2319 98.314 44.2887 98.6699 44.4023C99.0258 44.5159 99.3493 44.6781 99.6405 44.8891V46.6902H100.563V44.3049C100.158 43.9804 99.6971 43.7289 99.1794 43.5504C98.6618 43.3557 98.1118 43.2584 97.5294 43.2584C96.8662 43.2584 96.2434 43.3882 95.661 43.6478C95.0949 43.8912 94.5934 44.2238 94.1566 44.6457C93.7198 45.0676 93.3801 45.5706 93.1375 46.1547C92.8948 46.7388 92.7735 47.3554 92.7735 48.0045C92.7735 48.6697 92.8948 49.2944 93.1375 49.8786C93.3801 50.4465 93.7279 50.9414 94.1809 51.3633C94.6015 51.8014 95.0949 52.1421 95.661 52.3855C96.2434 52.6289 96.8662 52.7506 97.5294 52.7506C98.1118 52.7506 98.6537 52.6614 99.1552 52.4829C99.6567 52.2882 100.118 52.0285 100.538 51.704Z" fill="white"/>
<path d="M113.608 52.5802V51.631H111.812V43.4531H111.012C110.979 43.81 110.955 44.1751 110.939 44.5483C110.923 44.9053 110.915 45.2542 110.915 45.5949C110.64 44.9621 110.162 44.4185 109.483 43.9642C108.803 43.4936 107.987 43.2584 107.032 43.2584C106.353 43.2584 105.722 43.3882 105.14 43.6478C104.573 43.8912 104.072 44.2238 103.635 44.6457C103.198 45.0838 102.859 45.5949 102.616 46.179C102.373 46.7632 102.252 47.3717 102.252 48.0045C102.252 48.6697 102.373 49.2863 102.616 49.8542C102.859 50.4222 103.198 50.9252 103.635 51.3633C104.072 51.8014 104.573 52.1421 105.14 52.3855C105.722 52.6289 106.353 52.7506 107.032 52.7506C107.517 52.7506 107.97 52.6857 108.391 52.5559C108.828 52.4261 109.216 52.2476 109.556 52.0204C109.879 51.8095 110.154 51.5742 110.381 51.3146C110.623 51.0387 110.801 50.7548 110.915 50.4627C110.915 50.6737 110.915 50.8684 110.915 51.0469C110.915 51.2091 110.915 51.3876 110.915 51.5823V52.5802H113.608ZM107.032 44.2319C107.55 44.2319 108.035 44.3293 108.488 44.524C108.941 44.7025 109.345 44.9621 109.701 45.3028C110.041 45.6436 110.308 46.0492 110.502 46.5198C110.712 46.9741 110.817 47.469 110.817 48.0045C110.817 48.5399 110.712 49.0429 110.502 49.5135C110.308 49.9678 110.033 50.3654 109.677 50.7061C109.337 51.0469 108.941 51.3146 108.488 51.5093C108.035 51.6878 107.55 51.777 107.032 51.777C106.515 51.777 106.037 51.6878 105.601 51.5093C105.164 51.3308 104.776 51.0793 104.436 50.7548C104.064 50.414 103.773 50.0084 103.562 49.5378C103.352 49.0673 103.247 48.5562 103.247 48.0045C103.247 47.4852 103.336 46.9985 103.514 46.5441C103.708 46.0898 103.975 45.6923 104.314 45.3515C104.638 44.9945 105.034 44.7187 105.503 44.524C105.973 44.3293 106.482 44.2319 107.032 44.2319Z" fill="white"/>
<path d="M120.404 52.5802V51.631H118.414V44.4266H121.229V43.4531H118.414V37.5143H117.42V43.4531H115.309V44.4266H117.42V52.5802H120.404Z" fill="white"/>
<path d="M127.622 52.5802V51.631H125.802V43.4531H122.939V44.4023H124.807V51.631H122.939V52.5802H127.622ZM126.117 40.216C126.117 39.9888 126.037 39.8022 125.875 39.6562C125.713 39.4939 125.527 39.4128 125.317 39.4128C125.123 39.4128 124.945 39.4939 124.783 39.6562C124.621 39.8022 124.54 39.9888 124.54 40.216C124.54 40.4431 124.621 40.6379 124.783 40.8001C124.945 40.9461 125.123 41.0192 125.317 41.0192C125.527 41.0192 125.713 40.9461 125.875 40.8001C126.037 40.6379 126.117 40.4431 126.117 40.216Z" fill="white"/>
<path d="M137.515 51.3633C137.935 50.9252 138.267 50.4222 138.509 49.8542C138.768 49.2863 138.898 48.6697 138.898 48.0045C138.898 47.3554 138.768 46.7388 138.509 46.1547C138.267 45.5706 137.935 45.0594 137.515 44.6213C137.078 44.1995 136.56 43.8668 135.962 43.6234C135.379 43.3638 134.756 43.234 134.093 43.234C133.43 43.234 132.807 43.3638 132.225 43.6234C131.642 43.8668 131.141 44.1995 130.72 44.6213C130.284 45.0594 129.944 45.5706 129.701 46.1547C129.459 46.7388 129.337 47.3554 129.337 48.0045C129.337 48.6697 129.459 49.2944 129.701 49.8786C129.944 50.4465 130.284 50.9414 130.72 51.3633C131.141 51.8014 131.634 52.1421 132.201 52.3855C132.783 52.6289 133.414 52.7506 134.093 52.7506C134.756 52.7506 135.379 52.6289 135.962 52.3855C136.56 52.1421 137.078 51.8014 137.515 51.3633ZM131.424 50.6574C131.084 50.3329 130.817 49.9435 130.623 49.4892C130.429 49.0348 130.332 48.5399 130.332 48.0045C130.332 47.4852 130.429 46.9985 130.623 46.5441C130.817 46.0898 131.084 45.6842 131.424 45.3272C131.764 44.9864 132.16 44.7187 132.613 44.524C133.066 44.3293 133.551 44.2319 134.069 44.2319C134.587 44.2319 135.072 44.3293 135.525 44.524C135.994 44.7187 136.398 44.9864 136.738 45.3272C137.094 45.6842 137.369 46.0979 137.563 46.5685C137.757 47.0228 137.854 47.5015 137.854 48.0045C137.854 48.5399 137.757 49.0348 137.563 49.4892C137.369 49.9435 137.094 50.3329 136.738 50.6574C136.398 51.0144 135.994 51.2902 135.525 51.485C135.072 51.6797 134.587 51.777 134.069 51.777C133.551 51.777 133.066 51.6797 132.613 51.485C132.16 51.2902 131.764 51.0144 131.424 50.6574Z" fill="white"/>
<path d="M145.275 52.5802V51.631H143.48V47.5907C143.48 47.1039 143.577 46.6577 143.771 46.2521C143.981 45.8464 144.264 45.4894 144.62 45.1811C144.944 44.8891 145.332 44.6619 145.785 44.4996C146.238 44.3374 146.715 44.2563 147.217 44.2563C147.896 44.2887 148.406 44.4996 148.745 44.8891C149.101 45.2623 149.295 45.7166 149.328 46.2521V51.631H147.435V52.5802H152.118V51.631H150.323V45.9843C150.29 45.173 150.015 44.5159 149.498 44.0129C148.98 43.5099 148.276 43.2584 147.387 43.2584C146.481 43.2584 145.672 43.4936 144.96 43.9642C144.248 44.4347 143.731 45.0513 143.407 45.814C143.391 45.5381 143.375 45.2947 143.359 45.0838C143.342 44.8566 143.326 44.6051 143.31 44.3293L143.286 43.4531H140.738V44.4023H142.485V51.631H140.592V52.5802H145.275Z" fill="white"/>
<rect x="8" y="3" width="38.3486" height="57" rx="2.61468" fill="white"/>
<path d="M21.4733 12.3342H24.8084V50.9312H21.4733V12.3342ZM28.9809 47.9397H38.0811V48.9754H28.9809V47.9397ZM28.9809 42.2356H38.0811V43.2712H28.9809V42.2356ZM28.9809 36.5314H38.0811V37.5671H28.9809V36.5314Z" fill="#1C69B7" stroke="#1C69B7" stroke-width="1.52136"/>
<path d="M16.7153 11.5413H30.4313M16.7153 51.6918H30.4313M19.4585 11.7906V51.4424M26.9997 35.7706V49.7156" stroke="#1C69B7" stroke-width="0.748146"/>
</svg>
